# xmcd
#
# Track frame offsets:
#	150
#	18464
#	36443
#	51111
#	68474
#	87287
#	109955
#	126294
#	146226
#	166829
#	180086
#	197094
#
# Disc length: 2998 seconds
#
# Revision: 0
# Processed by: cddbd v1.5.2PL0 Copyright (c) Steve Scherf et al.
# Submitted via: EasyCDDAExtractor 10.2.0.1
#
DISCID=a10bb40c
DTITLE=Joe Hirata - Mistura
DYEAR=1900
DGENRE=
TTITLE0=Desencontro
TTITLE1=Nosso Lance
TTITLE2=Raça e ginga misturou
TTITLE3=Não me ligue mais
TTITLE4=Meu anjo amado
TTITLE5=Porto solidão
TTITLE6=Só rodeio
TTITLE7=Sonhos
TTITLE8=Filha
TTITLE9=Sai do chão ai
TTITLE10=Numa boa
TTITLE11=Sonho de um brasilieiro
EXTD=
EXTT0=
EXTT1=
EXTT2=
EXTT3=
EXTT4=
EXTT5=
EXTT6=
EXTT7=
EXTT8=
EXTT9=
EXTT10=
EXTT11=
PLAYORDER=
